G04 #@! TF.GenerationSoftware,KiCad,Pcbnew,5.1.5*
G04 #@! TF.CreationDate,2020-05-29T23:05:44+02:00*
G04 #@! TF.ProjectId,FFBridge,46464272-6964-4676-952e-6b696361645f,rev?*
G04 #@! TF.SameCoordinates,Original*
G04 #@! TF.FileFunction,Legend,Top*
G04 #@! TF.FilePolarity,Positive*
%FSLAX46Y46*%
G04 Gerber Fmt 4.6, Leading zero omitted, Abs format (unit mm)*
G04 Created by KiCad (PCBNEW 5.1.5) date 2020-05-29 23:05:44*
%MOMM*%
%LPD*%
G04 APERTURE LIST*
%ADD10C,0.120000*%
%ADD11C,0.150000*%
G04 APERTURE END LIST*
D10*
X179705000Y-104140000D02*
X180975000Y-104140000D01*
X179705000Y-105410000D02*
X179705000Y-104140000D01*
X182017929Y-113410000D02*
X182415000Y-113410000D01*
X182017929Y-112650000D02*
X182415000Y-112650000D01*
X191075000Y-113410000D02*
X185075000Y-113410000D01*
X191075000Y-112650000D02*
X191075000Y-113410000D01*
X185075000Y-112650000D02*
X191075000Y-112650000D01*
X182415000Y-111760000D02*
X185075000Y-111760000D01*
X182017929Y-110870000D02*
X182415000Y-110870000D01*
X182017929Y-110110000D02*
X182415000Y-110110000D01*
X191075000Y-110870000D02*
X185075000Y-110870000D01*
X191075000Y-110110000D02*
X191075000Y-110870000D01*
X185075000Y-110110000D02*
X191075000Y-110110000D01*
X182415000Y-109220000D02*
X185075000Y-109220000D01*
X182017929Y-108330000D02*
X182415000Y-108330000D01*
X182017929Y-107570000D02*
X182415000Y-107570000D01*
X191075000Y-108330000D02*
X185075000Y-108330000D01*
X191075000Y-107570000D02*
X191075000Y-108330000D01*
X185075000Y-107570000D02*
X191075000Y-107570000D01*
X182415000Y-106680000D02*
X185075000Y-106680000D01*
X182085000Y-105790000D02*
X182415000Y-105790000D01*
X182085000Y-105030000D02*
X182415000Y-105030000D01*
X185075000Y-105690000D02*
X191075000Y-105690000D01*
X185075000Y-105570000D02*
X191075000Y-105570000D01*
X185075000Y-105450000D02*
X191075000Y-105450000D01*
X185075000Y-105330000D02*
X191075000Y-105330000D01*
X185075000Y-105210000D02*
X191075000Y-105210000D01*
X185075000Y-105090000D02*
X191075000Y-105090000D01*
X191075000Y-105790000D02*
X185075000Y-105790000D01*
X191075000Y-105030000D02*
X191075000Y-105790000D01*
X185075000Y-105030000D02*
X191075000Y-105030000D01*
X185075000Y-104080000D02*
X182415000Y-104080000D01*
X185075000Y-114360000D02*
X185075000Y-104080000D01*
X182415000Y-114360000D02*
X185075000Y-114360000D01*
X182415000Y-104080000D02*
X182415000Y-114360000D01*
D11*
X185026666Y-102592380D02*
X185026666Y-103306666D01*
X184979047Y-103449523D01*
X184883809Y-103544761D01*
X184740952Y-103592380D01*
X184645714Y-103592380D01*
X185645714Y-103020952D02*
X185550476Y-102973333D01*
X185502857Y-102925714D01*
X185455238Y-102830476D01*
X185455238Y-102782857D01*
X185502857Y-102687619D01*
X185550476Y-102640000D01*
X185645714Y-102592380D01*
X185836190Y-102592380D01*
X185931428Y-102640000D01*
X185979047Y-102687619D01*
X186026666Y-102782857D01*
X186026666Y-102830476D01*
X185979047Y-102925714D01*
X185931428Y-102973333D01*
X185836190Y-103020952D01*
X185645714Y-103020952D01*
X185550476Y-103068571D01*
X185502857Y-103116190D01*
X185455238Y-103211428D01*
X185455238Y-103401904D01*
X185502857Y-103497142D01*
X185550476Y-103544761D01*
X185645714Y-103592380D01*
X185836190Y-103592380D01*
X185931428Y-103544761D01*
X185979047Y-103497142D01*
X186026666Y-103401904D01*
X186026666Y-103211428D01*
X185979047Y-103116190D01*
X185931428Y-103068571D01*
X185836190Y-103020952D01*
M02*
