G04 #@! TF.GenerationSoftware,KiCad,Pcbnew,5.1.5*
G04 #@! TF.CreationDate,2020-05-29T23:05:44+02:00*
G04 #@! TF.ProjectId,FFBridge,46464272-6964-4676-952e-6b696361645f,rev?*
G04 #@! TF.SameCoordinates,Original*
G04 #@! TF.FileFunction,Copper,L2,Bot*
G04 #@! TF.FilePolarity,Positive*
%FSLAX46Y46*%
G04 Gerber Fmt 4.6, Leading zero omitted, Abs format (unit mm)*
G04 Created by KiCad (PCBNEW 5.1.5) date 2020-05-29 23:05:44*
%MOMM*%
%LPD*%
G04 APERTURE LIST*
%ADD10C,0.150000*%
%ADD11C,0.300000*%
%ADD12O,1.700000X1.700000*%
%ADD13R,1.700000X1.700000*%
%ADD14R,1.500000X1.300000*%
%ADD15R,1.500000X1.250000*%
%ADD16C,0.800000*%
%ADD17C,0.203200*%
G04 APERTURE END LIST*
D10*
X212606190Y-98829857D02*
X212558571Y-98782238D01*
X212415714Y-98734619D01*
X212320476Y-98734619D01*
X212177619Y-98782238D01*
X212082380Y-98877476D01*
X212034761Y-98972714D01*
X211987142Y-99163190D01*
X211987142Y-99306047D01*
X212034761Y-99496523D01*
X212082380Y-99591761D01*
X212177619Y-99687000D01*
X212320476Y-99734619D01*
X212415714Y-99734619D01*
X212558571Y-99687000D01*
X212606190Y-99639380D01*
X213034761Y-98734619D02*
X213034761Y-99734619D01*
X213272857Y-99734619D01*
X213415714Y-99687000D01*
X213510952Y-99591761D01*
X213558571Y-99496523D01*
X213606190Y-99306047D01*
X213606190Y-99163190D01*
X213558571Y-98972714D01*
X213510952Y-98877476D01*
X213415714Y-98782238D01*
X213272857Y-98734619D01*
X213034761Y-98734619D01*
X214034761Y-99115571D02*
X214796666Y-99115571D01*
X215272857Y-98734619D02*
X215272857Y-99734619D01*
X215606190Y-99020333D01*
X215939523Y-99734619D01*
X215939523Y-98734619D01*
X216415714Y-98734619D02*
X216415714Y-99401285D01*
X216415714Y-99734619D02*
X216368095Y-99687000D01*
X216415714Y-99639380D01*
X216463333Y-99687000D01*
X216415714Y-99734619D01*
X216415714Y-99639380D01*
X216796666Y-98734619D02*
X217320476Y-99401285D01*
X216796666Y-99401285D02*
X217320476Y-98734619D01*
X135660380Y-112259619D02*
X135660380Y-113259619D01*
X136041333Y-113259619D01*
X136136571Y-113212000D01*
X136184190Y-113164380D01*
X136231809Y-113069142D01*
X136231809Y-112926285D01*
X136184190Y-112831047D01*
X136136571Y-112783428D01*
X136041333Y-112735809D01*
X135660380Y-112735809D01*
X136660380Y-112259619D02*
X136660380Y-113259619D01*
X136993714Y-113259619D02*
X137327047Y-112259619D01*
X137660380Y-113259619D01*
X139088952Y-112783428D02*
X138755619Y-112783428D01*
X138755619Y-112259619D02*
X138755619Y-113259619D01*
X139231809Y-113259619D01*
X139946095Y-112783428D02*
X139612761Y-112783428D01*
X139612761Y-112259619D02*
X139612761Y-113259619D01*
X140088952Y-113259619D01*
X140803238Y-112783428D02*
X140946095Y-112735809D01*
X140993714Y-112688190D01*
X141041333Y-112592952D01*
X141041333Y-112450095D01*
X140993714Y-112354857D01*
X140946095Y-112307238D01*
X140850857Y-112259619D01*
X140469904Y-112259619D01*
X140469904Y-113259619D01*
X140803238Y-113259619D01*
X140898476Y-113212000D01*
X140946095Y-113164380D01*
X140993714Y-113069142D01*
X140993714Y-112973904D01*
X140946095Y-112878666D01*
X140898476Y-112831047D01*
X140803238Y-112783428D01*
X140469904Y-112783428D01*
X141469904Y-112259619D02*
X141469904Y-112926285D01*
X141469904Y-112735809D02*
X141517523Y-112831047D01*
X141565142Y-112878666D01*
X141660380Y-112926285D01*
X141755619Y-112926285D01*
X142088952Y-112259619D02*
X142088952Y-112926285D01*
X142088952Y-113259619D02*
X142041333Y-113212000D01*
X142088952Y-113164380D01*
X142136571Y-113212000D01*
X142088952Y-113259619D01*
X142088952Y-113164380D01*
X142993714Y-112259619D02*
X142993714Y-113259619D01*
X142993714Y-112307238D02*
X142898476Y-112259619D01*
X142708000Y-112259619D01*
X142612761Y-112307238D01*
X142565142Y-112354857D01*
X142517523Y-112450095D01*
X142517523Y-112735809D01*
X142565142Y-112831047D01*
X142612761Y-112878666D01*
X142708000Y-112926285D01*
X142898476Y-112926285D01*
X142993714Y-112878666D01*
X143898476Y-112926285D02*
X143898476Y-112116761D01*
X143850857Y-112021523D01*
X143803238Y-111973904D01*
X143708000Y-111926285D01*
X143565142Y-111926285D01*
X143469904Y-111973904D01*
X143898476Y-112307238D02*
X143803238Y-112259619D01*
X143612761Y-112259619D01*
X143517523Y-112307238D01*
X143469904Y-112354857D01*
X143422285Y-112450095D01*
X143422285Y-112735809D01*
X143469904Y-112831047D01*
X143517523Y-112878666D01*
X143612761Y-112926285D01*
X143803238Y-112926285D01*
X143898476Y-112878666D01*
X144755619Y-112307238D02*
X144660380Y-112259619D01*
X144469904Y-112259619D01*
X144374666Y-112307238D01*
X144327047Y-112402476D01*
X144327047Y-112783428D01*
X144374666Y-112878666D01*
X144469904Y-112926285D01*
X144660380Y-112926285D01*
X144755619Y-112878666D01*
X144803238Y-112783428D01*
X144803238Y-112688190D01*
X144327047Y-112592952D01*
X133850857Y-110609619D02*
X133850857Y-111609619D01*
X134184190Y-110895333D01*
X134517523Y-111609619D01*
X134517523Y-110609619D01*
X135422285Y-110609619D02*
X135422285Y-111133428D01*
X135374666Y-111228666D01*
X135279428Y-111276285D01*
X135088952Y-111276285D01*
X134993714Y-111228666D01*
X135422285Y-110657238D02*
X135327047Y-110609619D01*
X135088952Y-110609619D01*
X134993714Y-110657238D01*
X134946095Y-110752476D01*
X134946095Y-110847714D01*
X134993714Y-110942952D01*
X135088952Y-110990571D01*
X135327047Y-110990571D01*
X135422285Y-111038190D01*
X135850857Y-110657238D02*
X135946095Y-110609619D01*
X136136571Y-110609619D01*
X136231809Y-110657238D01*
X136279428Y-110752476D01*
X136279428Y-110800095D01*
X136231809Y-110895333D01*
X136136571Y-110942952D01*
X135993714Y-110942952D01*
X135898476Y-110990571D01*
X135850857Y-111085809D01*
X135850857Y-111133428D01*
X135898476Y-111228666D01*
X135993714Y-111276285D01*
X136136571Y-111276285D01*
X136231809Y-111228666D01*
X136565142Y-111276285D02*
X136946095Y-111276285D01*
X136708000Y-111609619D02*
X136708000Y-110752476D01*
X136755619Y-110657238D01*
X136850857Y-110609619D01*
X136946095Y-110609619D01*
X137708000Y-110609619D02*
X137708000Y-111133428D01*
X137660380Y-111228666D01*
X137565142Y-111276285D01*
X137374666Y-111276285D01*
X137279428Y-111228666D01*
X137708000Y-110657238D02*
X137612761Y-110609619D01*
X137374666Y-110609619D01*
X137279428Y-110657238D01*
X137231809Y-110752476D01*
X137231809Y-110847714D01*
X137279428Y-110942952D01*
X137374666Y-110990571D01*
X137612761Y-110990571D01*
X137708000Y-111038190D01*
X138041333Y-111609619D02*
X138612761Y-111609619D01*
X138327047Y-110609619D02*
X138327047Y-111609619D01*
X139374666Y-110609619D02*
X139374666Y-111133428D01*
X139327047Y-111228666D01*
X139231809Y-111276285D01*
X139041333Y-111276285D01*
X138946095Y-111228666D01*
X139374666Y-110657238D02*
X139279428Y-110609619D01*
X139041333Y-110609619D01*
X138946095Y-110657238D01*
X138898476Y-110752476D01*
X138898476Y-110847714D01*
X138946095Y-110942952D01*
X139041333Y-110990571D01*
X139279428Y-110990571D01*
X139374666Y-111038190D01*
X139850857Y-110609619D02*
X139850857Y-111609619D01*
X139850857Y-111228666D02*
X139946095Y-111276285D01*
X140136571Y-111276285D01*
X140231809Y-111228666D01*
X140279428Y-111181047D01*
X140327047Y-111085809D01*
X140327047Y-110800095D01*
X140279428Y-110704857D01*
X140231809Y-110657238D01*
X140136571Y-110609619D01*
X139946095Y-110609619D01*
X139850857Y-110657238D01*
X140708000Y-110657238D02*
X140803238Y-110609619D01*
X140993714Y-110609619D01*
X141088952Y-110657238D01*
X141136571Y-110752476D01*
X141136571Y-110800095D01*
X141088952Y-110895333D01*
X140993714Y-110942952D01*
X140850857Y-110942952D01*
X140755619Y-110990571D01*
X140708000Y-111085809D01*
X140708000Y-111133428D01*
X140755619Y-111228666D01*
X140850857Y-111276285D01*
X140993714Y-111276285D01*
X141088952Y-111228666D01*
X142946095Y-111085809D02*
X142898476Y-111133428D01*
X142803238Y-111181047D01*
X142708000Y-111181047D01*
X142612761Y-111133428D01*
X142565142Y-111085809D01*
X142517523Y-110990571D01*
X142517523Y-110895333D01*
X142565142Y-110800095D01*
X142612761Y-110752476D01*
X142708000Y-110704857D01*
X142803238Y-110704857D01*
X142898476Y-110752476D01*
X142946095Y-110800095D01*
X142946095Y-111181047D02*
X142946095Y-110800095D01*
X142993714Y-110752476D01*
X143041333Y-110752476D01*
X143136571Y-110800095D01*
X143184190Y-110895333D01*
X143184190Y-111133428D01*
X143088952Y-111276285D01*
X142946095Y-111371523D01*
X142755619Y-111419142D01*
X142565142Y-111371523D01*
X142422285Y-111276285D01*
X142327047Y-111133428D01*
X142279428Y-110942952D01*
X142327047Y-110752476D01*
X142422285Y-110609619D01*
X142565142Y-110514380D01*
X142755619Y-110466761D01*
X142946095Y-110514380D01*
X143088952Y-110609619D01*
X144803238Y-110609619D02*
X144803238Y-111133428D01*
X144755619Y-111228666D01*
X144660380Y-111276285D01*
X144469904Y-111276285D01*
X144374666Y-111228666D01*
X144803238Y-110657238D02*
X144708000Y-110609619D01*
X144469904Y-110609619D01*
X144374666Y-110657238D01*
X144327047Y-110752476D01*
X144327047Y-110847714D01*
X144374666Y-110942952D01*
X144469904Y-110990571D01*
X144708000Y-110990571D01*
X144803238Y-111038190D01*
X145803238Y-110609619D02*
X145231809Y-110609619D01*
X145517523Y-110609619D02*
X145517523Y-111609619D01*
X145422285Y-111466761D01*
X145327047Y-111371523D01*
X145231809Y-111323904D01*
X146231809Y-110609619D02*
X146231809Y-111609619D01*
X146327047Y-110990571D02*
X146612761Y-110609619D01*
X146612761Y-111276285D02*
X146231809Y-110895333D01*
D11*
X178462714Y-106970000D02*
X178534142Y-106898571D01*
X178605571Y-106684285D01*
X178605571Y-106541428D01*
X178534142Y-106327142D01*
X178391285Y-106184285D01*
X178248428Y-106112857D01*
X177962714Y-106041428D01*
X177748428Y-106041428D01*
X177462714Y-106112857D01*
X177319857Y-106184285D01*
X177177000Y-106327142D01*
X177105571Y-106541428D01*
X177105571Y-106684285D01*
X177177000Y-106898571D01*
X177248428Y-106970000D01*
X178605571Y-107612857D02*
X177105571Y-107612857D01*
X177105571Y-107970000D01*
X177177000Y-108184285D01*
X177319857Y-108327142D01*
X177462714Y-108398571D01*
X177748428Y-108470000D01*
X177962714Y-108470000D01*
X178248428Y-108398571D01*
X178391285Y-108327142D01*
X178534142Y-108184285D01*
X178605571Y-107970000D01*
X178605571Y-107612857D01*
X178034142Y-109112857D02*
X178034142Y-110255714D01*
X178605571Y-110970000D02*
X177105571Y-110970000D01*
X177605571Y-111684285D02*
X178605571Y-111684285D01*
X177748428Y-111684285D02*
X177677000Y-111755714D01*
X177605571Y-111898571D01*
X177605571Y-112112857D01*
X177677000Y-112255714D01*
X177819857Y-112327142D01*
X178605571Y-112327142D01*
D12*
X178435000Y-116840000D03*
D13*
X180975000Y-116840000D03*
D12*
X180975000Y-113030000D03*
X180975000Y-110490000D03*
X180975000Y-107950000D03*
D13*
X180975000Y-105410000D03*
D12*
X201295000Y-107950000D03*
X201295000Y-105410000D03*
X201295000Y-102870000D03*
D13*
X201295000Y-100330000D03*
D14*
X215883500Y-102933500D03*
X218583500Y-102933500D03*
X215883500Y-95283500D03*
X218583500Y-95283500D03*
D12*
X223520000Y-102870000D03*
X223520000Y-100330000D03*
X223520000Y-97790000D03*
D13*
X223520000Y-95250000D03*
D12*
X210820000Y-116840000D03*
X210820000Y-114300000D03*
X210820000Y-111760000D03*
D13*
X210820000Y-109220000D03*
D15*
X210649500Y-102933500D03*
X213149500Y-102933500D03*
X210649500Y-95283500D03*
X213149500Y-95283500D03*
D12*
X197485000Y-116840000D03*
X200025000Y-116840000D03*
X202565000Y-116840000D03*
D13*
X205105000Y-116840000D03*
D12*
X153670000Y-116840000D03*
X153670000Y-119380000D03*
X156210000Y-116840000D03*
X156210000Y-119380000D03*
X158750000Y-116840000D03*
X158750000Y-119380000D03*
X161290000Y-116840000D03*
X161290000Y-119380000D03*
X163830000Y-116840000D03*
X163830000Y-119380000D03*
X166370000Y-116840000D03*
X166370000Y-119380000D03*
X168910000Y-116840000D03*
X168910000Y-119380000D03*
X171450000Y-116840000D03*
D13*
X171450000Y-119380000D03*
D12*
X96520000Y-116840000D03*
X96520000Y-119380000D03*
X99060000Y-116840000D03*
X99060000Y-119380000D03*
X101600000Y-116840000D03*
X101600000Y-119380000D03*
X104140000Y-116840000D03*
X104140000Y-119380000D03*
X106680000Y-116840000D03*
X106680000Y-119380000D03*
X109220000Y-116840000D03*
X109220000Y-119380000D03*
X111760000Y-116840000D03*
X111760000Y-119380000D03*
X114300000Y-116840000D03*
X114300000Y-119380000D03*
X116840000Y-116840000D03*
X116840000Y-119380000D03*
X119380000Y-116840000D03*
X119380000Y-119380000D03*
X121920000Y-116840000D03*
X121920000Y-119380000D03*
X124460000Y-116840000D03*
X124460000Y-119380000D03*
X127000000Y-116840000D03*
D13*
X127000000Y-119380000D03*
D12*
X153670000Y-105410000D03*
X153670000Y-107950000D03*
X156210000Y-105410000D03*
X156210000Y-107950000D03*
X158750000Y-105410000D03*
X158750000Y-107950000D03*
X161290000Y-105410000D03*
X161290000Y-107950000D03*
X163830000Y-105410000D03*
X163830000Y-107950000D03*
X166370000Y-105410000D03*
X166370000Y-107950000D03*
X168910000Y-105410000D03*
X168910000Y-107950000D03*
X171450000Y-105410000D03*
D13*
X171450000Y-107950000D03*
D12*
X96520000Y-105410000D03*
X96520000Y-107950000D03*
X99060000Y-105410000D03*
X99060000Y-107950000D03*
X101600000Y-105410000D03*
X101600000Y-107950000D03*
X104140000Y-105410000D03*
X104140000Y-107950000D03*
X106680000Y-105410000D03*
X106680000Y-107950000D03*
X109220000Y-105410000D03*
X109220000Y-107950000D03*
X111760000Y-105410000D03*
X111760000Y-107950000D03*
X114300000Y-105410000D03*
X114300000Y-107950000D03*
X116840000Y-105410000D03*
X116840000Y-107950000D03*
X119380000Y-105410000D03*
X119380000Y-107950000D03*
X121920000Y-105410000D03*
X121920000Y-107950000D03*
X124460000Y-105410000D03*
X124460000Y-107950000D03*
X127000000Y-105410000D03*
D13*
X127000000Y-107950000D03*
D16*
X208661000Y-103060500D03*
D17*
X96520000Y-116332000D02*
X96520000Y-117348000D01*
X97790000Y-115062000D02*
X96520000Y-116332000D01*
X96520000Y-105918000D02*
X97790000Y-107188000D01*
X97790000Y-107188000D02*
X97790000Y-115062000D01*
X210820000Y-114300000D02*
X210820000Y-111760000D01*
X180975000Y-109668919D02*
X180975000Y-108331000D01*
X180975000Y-110871000D02*
X180975000Y-109668919D01*
X178435000Y-116840000D02*
X180975000Y-116840000D01*
X154940000Y-114173000D02*
X153670000Y-115443000D01*
X153670000Y-115443000D02*
X153670000Y-117348000D01*
X153670000Y-105918000D02*
X154940000Y-107188000D01*
X154940000Y-107188000D02*
X154940000Y-114173000D01*
X98210001Y-119038001D02*
X99060000Y-119888000D01*
X97790000Y-118618000D02*
X98210001Y-119038001D01*
X97790000Y-116268500D02*
X97790000Y-118618000D01*
X99060000Y-108458000D02*
X99060000Y-114998500D01*
X99060000Y-114998500D02*
X97790000Y-116268500D01*
X101600000Y-116332000D02*
X101600000Y-117348000D01*
X101600000Y-105918000D02*
X102870000Y-107188000D01*
X102870000Y-115062000D02*
X101600000Y-116332000D01*
X102870000Y-107188000D02*
X102870000Y-115062000D01*
X104140000Y-116332000D02*
X104140000Y-117348000D01*
X104140000Y-105918000D02*
X105410000Y-107188000D01*
X105410000Y-115062000D02*
X104140000Y-116332000D01*
X105410000Y-107188000D02*
X105410000Y-115062000D01*
X102870000Y-118618000D02*
X103290001Y-119038001D01*
X104140000Y-108458000D02*
X104140000Y-114935000D01*
X103290001Y-119038001D02*
X104140000Y-119888000D01*
X102870000Y-116205000D02*
X102870000Y-118618000D01*
X104140000Y-114935000D02*
X102870000Y-116205000D01*
X107529999Y-116498001D02*
X106680000Y-117348000D01*
X107950000Y-116078000D02*
X107529999Y-116498001D01*
X106680000Y-105918000D02*
X107950000Y-107188000D01*
X107950000Y-107188000D02*
X107950000Y-116078000D01*
X105410000Y-116332000D02*
X105410000Y-118618000D01*
X105830001Y-119038001D02*
X106680000Y-119888000D01*
X105410000Y-118618000D02*
X105830001Y-119038001D01*
X106680000Y-108458000D02*
X106680000Y-115062000D01*
X106680000Y-115062000D02*
X105410000Y-116332000D01*
X109220000Y-116332000D02*
X109220000Y-117348000D01*
X110490000Y-115062000D02*
X109220000Y-116332000D01*
X109220000Y-105918000D02*
X110490000Y-107188000D01*
X110490000Y-107188000D02*
X110490000Y-115062000D01*
X111760000Y-116332000D02*
X111760000Y-117348000D01*
X111760000Y-105918000D02*
X113030000Y-107188000D01*
X113030000Y-115062000D02*
X111760000Y-116332000D01*
X113030000Y-107188000D02*
X113030000Y-115062000D01*
X110910001Y-119038001D02*
X111760000Y-119888000D01*
X110490000Y-118618000D02*
X110910001Y-119038001D01*
X110490000Y-116268500D02*
X110490000Y-118618000D01*
X111760000Y-114998500D02*
X110490000Y-116268500D01*
X111760000Y-108458000D02*
X111760000Y-114998500D01*
X115149999Y-116498001D02*
X114300000Y-117348000D01*
X115570000Y-116078000D02*
X115149999Y-116498001D01*
X114300000Y-105918000D02*
X115570000Y-107188000D01*
X115570000Y-107188000D02*
X115570000Y-116078000D01*
X113030000Y-118618000D02*
X113450001Y-119038001D01*
X113030000Y-116205000D02*
X113030000Y-118618000D01*
X113450001Y-119038001D02*
X114300000Y-119888000D01*
X114300000Y-114935000D02*
X113030000Y-116205000D01*
X114300000Y-108458000D02*
X114300000Y-114935000D01*
X118110000Y-115062000D02*
X116840000Y-116332000D01*
X116840000Y-116332000D02*
X116840000Y-117348000D01*
X116840000Y-105918000D02*
X118110000Y-107188000D01*
X118110000Y-107188000D02*
X118110000Y-115062000D01*
X119380000Y-116332000D02*
X119380000Y-117348000D01*
X120650000Y-115062000D02*
X119380000Y-116332000D01*
X119380000Y-105918000D02*
X120650000Y-107188000D01*
X120650000Y-107188000D02*
X120650000Y-115062000D01*
X118530001Y-119038001D02*
X119380000Y-119888000D01*
X118110000Y-118618000D02*
X118530001Y-119038001D01*
X119380000Y-108458000D02*
X119380000Y-115062000D01*
X118110000Y-116332000D02*
X118110000Y-118618000D01*
X119380000Y-115062000D02*
X118110000Y-116332000D01*
X122769999Y-116498001D02*
X121920000Y-117348000D01*
X123190000Y-116078000D02*
X122769999Y-116498001D01*
X121920000Y-105918000D02*
X123190000Y-107188000D01*
X123190000Y-107188000D02*
X123190000Y-116078000D01*
X121070001Y-119038001D02*
X121920000Y-119888000D01*
X120650000Y-116332000D02*
X120650000Y-118618000D01*
X120650000Y-118618000D02*
X121070001Y-119038001D01*
X121920000Y-108458000D02*
X121920000Y-115062000D01*
X121920000Y-115062000D02*
X120650000Y-116332000D01*
X125309999Y-116498001D02*
X124460000Y-117348000D01*
X125730000Y-116078000D02*
X125309999Y-116498001D01*
X124460000Y-105918000D02*
X125730000Y-107188000D01*
X125730000Y-107188000D02*
X125730000Y-116078000D01*
X128270000Y-116078000D02*
X127849999Y-116498001D01*
X128270000Y-106807000D02*
X128270000Y-116078000D01*
X127849999Y-116498001D02*
X127000000Y-117348000D01*
X127000000Y-105918000D02*
X127381000Y-105918000D01*
X127381000Y-105918000D02*
X128270000Y-106807000D01*
X156210000Y-116840000D02*
X156210000Y-117348000D01*
X157059999Y-116498001D02*
X156551999Y-116498001D01*
X156210000Y-105918000D02*
X157480000Y-107188000D01*
X156551999Y-116498001D02*
X156210000Y-116840000D01*
X157480000Y-116078000D02*
X157059999Y-116498001D01*
X157480000Y-107188000D02*
X157480000Y-116078000D01*
X155360001Y-119038001D02*
X156210000Y-119888000D01*
X154940000Y-116205000D02*
X154940000Y-118618000D01*
X154940000Y-118618000D02*
X155360001Y-119038001D01*
X156210000Y-108458000D02*
X156210000Y-114935000D01*
X156210000Y-114935000D02*
X154940000Y-116205000D01*
X160020000Y-114173000D02*
X158750000Y-115443000D01*
X158750000Y-105918000D02*
X160020000Y-107188000D01*
X158750000Y-115443000D02*
X158750000Y-117348000D01*
X160020000Y-107188000D02*
X160020000Y-114173000D01*
X161290000Y-105918000D02*
X162560000Y-107188000D01*
X162139999Y-116498001D02*
X161290000Y-117348000D01*
X162560000Y-116078000D02*
X162139999Y-116498001D01*
X162560000Y-107188000D02*
X162560000Y-116078000D01*
X160440001Y-119038001D02*
X161290000Y-119888000D01*
X160020000Y-118618000D02*
X160440001Y-119038001D01*
X161290000Y-108458000D02*
X161290000Y-114935000D01*
X160020000Y-116205000D02*
X160020000Y-118618000D01*
X161290000Y-114935000D02*
X160020000Y-116205000D01*
X163830000Y-115443000D02*
X163830000Y-117348000D01*
X165100000Y-114173000D02*
X163830000Y-115443000D01*
X163830000Y-105918000D02*
X165100000Y-107188000D01*
X165100000Y-107188000D02*
X165100000Y-114173000D01*
X166370000Y-105918000D02*
X167640000Y-107188000D01*
X167219999Y-116498001D02*
X166370000Y-117348000D01*
X167640000Y-116078000D02*
X167219999Y-116498001D01*
X167640000Y-107188000D02*
X167640000Y-116078000D01*
X165520001Y-119038001D02*
X166370000Y-119888000D01*
X165100000Y-118618000D02*
X165520001Y-119038001D01*
X165100000Y-116332000D02*
X165100000Y-118618000D01*
X166370000Y-108458000D02*
X166370000Y-115062000D01*
X166370000Y-115062000D02*
X165100000Y-116332000D01*
X169759999Y-116498001D02*
X168910000Y-117348000D01*
X170180000Y-116078000D02*
X169759999Y-116498001D01*
X168910000Y-105918000D02*
X170180000Y-107188000D01*
X170180000Y-107188000D02*
X170180000Y-116078000D01*
X172720000Y-116078000D02*
X172299999Y-116498001D01*
X171450000Y-105918000D02*
X171831000Y-105918000D01*
X172299999Y-116498001D02*
X171450000Y-117348000D01*
X172720000Y-106807000D02*
X172720000Y-116078000D01*
X171831000Y-105918000D02*
X172720000Y-106807000D01*
X201362919Y-116840000D02*
X200025000Y-116840000D01*
X202565000Y-116840000D02*
X201362919Y-116840000D01*
X203962000Y-115443000D02*
X202565000Y-116840000D01*
X201295000Y-102870000D02*
X203962000Y-105537000D01*
X203962000Y-105537000D02*
X203962000Y-115443000D01*
X201295000Y-105410000D02*
X201295000Y-102870000D01*
X202755500Y-106870500D02*
X201295000Y-105410000D01*
X200025000Y-116840000D02*
X202755500Y-114109500D01*
X202755500Y-114109500D02*
X202755500Y-106870500D01*
X100330000Y-116078000D02*
X99909999Y-116498001D01*
X99060000Y-105918000D02*
X100330000Y-107188000D01*
X99909999Y-116498001D02*
X99060000Y-117348000D01*
X100330000Y-107188000D02*
X100330000Y-116078000D01*
X205168500Y-95313500D02*
X201295000Y-99187000D01*
X210649500Y-95313500D02*
X205168500Y-95313500D01*
X201295000Y-99187000D02*
X201295000Y-100330000D01*
X205105000Y-102743000D02*
X205105000Y-115786800D01*
X201295000Y-100330000D02*
X202692000Y-100330000D01*
X205105000Y-115786800D02*
X205105000Y-116840000D01*
X202692000Y-100330000D02*
X205105000Y-102743000D01*
X213149500Y-95313500D02*
X215947000Y-95313500D01*
X210586000Y-103060500D02*
X210713000Y-102933500D01*
X208661000Y-103060500D02*
X210586000Y-103060500D01*
X201295000Y-113030000D02*
X197485000Y-116840000D01*
X201295000Y-108458000D02*
X201295000Y-113030000D01*
X213213000Y-102933500D02*
X215883500Y-102933500D01*
X209970001Y-117689999D02*
X210820000Y-116840000D01*
X181824999Y-114260999D02*
X184872999Y-114260999D01*
X180975000Y-113411000D02*
X181824999Y-114260999D01*
X184872999Y-114260999D02*
X191135000Y-120523000D01*
X191135000Y-120523000D02*
X207137000Y-120523000D01*
X207137000Y-120523000D02*
X209970001Y-117689999D01*
X184277000Y-111887000D02*
X191833500Y-119443500D01*
X191833500Y-119443500D02*
X206311500Y-119443500D01*
X206311500Y-119443500D02*
X208153000Y-117602000D01*
X209766800Y-109220000D02*
X210820000Y-109220000D01*
X208153000Y-110833800D02*
X209766800Y-109220000D01*
X208153000Y-117602000D02*
X208153000Y-110833800D01*
X182028200Y-105791000D02*
X180975000Y-105791000D01*
X184277000Y-108039800D02*
X182028200Y-105791000D01*
X184277000Y-111887000D02*
X184277000Y-108039800D01*
X223456500Y-102933500D02*
X223520000Y-102870000D01*
X218583500Y-102933500D02*
X223456500Y-102933500D01*
X223520000Y-99127919D02*
X223520000Y-97790000D01*
X223520000Y-100330000D02*
X223520000Y-99127919D01*
X223456500Y-95313500D02*
X223520000Y-95250000D01*
X218647000Y-95313500D02*
X223456500Y-95313500D01*
M02*
