M48
INCH,TZ
T1C0.0157
T2C0.0394
%
G90
G05
T1
X82150Y-40575
T2
X71250Y-41500
X71250Y-42500
X71250Y-43500
X71250Y-44500
X70250Y-46000
X71250Y-46000
X79250Y-39500
X79250Y-40500
X79250Y-41500
X79250Y-42500
X88000Y-37500
X88000Y-38500
X88000Y-39500
X88000Y-40500
X38000Y-46000
X38000Y-47000
X39000Y-46000
X39000Y-47000
X40000Y-46000
X40000Y-47000
X41000Y-46000
X41000Y-47000
X42000Y-46000
X42000Y-47000
X43000Y-46000
X43000Y-47000
X44000Y-46000
X44000Y-47000
X45000Y-46000
X45000Y-47000
X46000Y-46000
X46000Y-47000
X47000Y-46000
X47000Y-47000
X48000Y-46000
X48000Y-47000
X49000Y-46000
X49000Y-47000
X50000Y-46000
X50000Y-47000
X38000Y-41500
X38000Y-42500
X39000Y-41500
X39000Y-42500
X40000Y-41500
X40000Y-42500
X41000Y-41500
X41000Y-42500
X42000Y-41500
X42000Y-42500
X43000Y-41500
X43000Y-42500
X44000Y-41500
X44000Y-42500
X45000Y-41500
X45000Y-42500
X46000Y-41500
X46000Y-42500
X47000Y-41500
X47000Y-42500
X48000Y-41500
X48000Y-42500
X49000Y-41500
X49000Y-42500
X50000Y-41500
X50000Y-42500
X60500Y-46000
X60500Y-47000
X61500Y-46000
X61500Y-47000
X62500Y-46000
X62500Y-47000
X63500Y-46000
X63500Y-47000
X64500Y-46000
X64500Y-47000
X65500Y-46000
X65500Y-47000
X66500Y-46000
X66500Y-47000
X67500Y-46000
X67500Y-47000
X60500Y-41500
X60500Y-42500
X61500Y-41500
X61500Y-42500
X62500Y-41500
X62500Y-42500
X63500Y-41500
X63500Y-42500
X64500Y-41500
X64500Y-42500
X65500Y-41500
X65500Y-42500
X66500Y-41500
X66500Y-42500
X67500Y-41500
X67500Y-42500
X77750Y-46000
X78750Y-46000
X79750Y-46000
X80750Y-46000
X83000Y-43000
X83000Y-44000
X83000Y-45000
X83000Y-46000
T0
M30
